<svg width="74" height="74" viewBox="0 0 74 74" fill="none" xmlns="http://www.w3.org/2000/svg">
<circle cx="37" cy="37" r="37" fill="#887E79"/>
<path fill-rule="evenodd" clip-rule="evenodd" d="M57.0625 22C38.8375 23.8 29.5937 46.75 27.25 58C33.775 42.7 38.2187 42.25 41.875 41.9688C44.125 41.7957 47.9687 38.6875 49.4687 36.625C47.4437 37.075 44.875 36.4375 43.8437 36.0625C43.8437 34.9375 46.6562 33.5313 49.4687 33.5313C56.6687 33.3063 57.5312 25.75 57.0625 22ZM16 31.2812C16 30.5046 16.6296 29.875 17.4063 29.875H23.3125V23.9688C23.3125 23.1921 23.9421 22.5625 24.7188 22.5625C25.4954 22.5625 26.125 23.1921 26.125 23.9688V29.875H32.0313C32.8079 29.875 33.4375 30.5046 33.4375 31.2812C33.4375 32.0579 32.8079 32.6875 32.0313 32.6875H26.125V38.0313C26.125 38.8079 25.4954 39.4375 24.7188 39.4375C23.9421 39.4375 23.3125 38.8079 23.3125 38.0313V32.6875H17.4062C16.6296 32.6875 16 32.0579 16 31.2812Z" fill="#FFFCF4"/>
</svg>
