<svg width="50" height="50" viewBox="0 0 50 50" fill="none" xmlns="http://www.w3.org/2000/svg">
<path fill-rule="evenodd" clip-rule="evenodd" d="M45.0625 7C26.8375 8.8 17.5937 31.75 15.25 43C21.775 27.7 26.2187 27.25 29.875 26.9688C32.125 26.7957 35.9687 23.6875 37.4687 21.625C35.4437 22.075 32.875 21.4375 31.8437 21.0625C31.8437 19.9375 34.6562 18.5313 37.4687 18.5313C44.6687 18.3063 45.5312 10.75 45.0625 7ZM4 16.2812C4 15.5046 4.6296 14.875 5.40625 14.875H11.3125V8.96879C11.3125 8.19214 11.9421 7.56254 12.7188 7.56254C13.4954 7.56254 14.125 8.19214 14.125 8.96879V14.875H20.0313C20.8079 14.875 21.4375 15.5046 21.4375 16.2812C21.4375 17.0579 20.8079 17.6875 20.0313 17.6875H14.125V23.0313C14.125 23.8079 13.4954 24.4375 12.7188 24.4375C11.9421 24.4375 11.3125 23.8079 11.3125 23.0313V17.6875H5.40625C4.6296 17.6875 4 17.0579 4 16.2812Z" fill="#FFFCF4"/>
</svg>
